# xmcd CD database file
#
# Track frame offsets:
#	150
#	19616
#	44329
#	69457
#	98468
#	118597
#	142642
#	165499
#	184034
#	198568
#	218443
#
# Disc length: 3255 seconds
#
# Revision: 0
# Processed by: cddbd v1.5.2PL0 Copyright (c) Steve Scherf et al.
# Submitted via: CDex 1.78
#
DISCID=850cb50b
DTITLE=Ali Jackson - Amalgarmations
DYEAR=2014
DGENRE=Jazz
TTITLE0=Ali's Got Rythym
TTITLE1=Cachita
TTITLE2=Done Told You Fo Five Times
TTITLE3=Praise
TTITLE4=Cherokee
TTITLE5=A Closer Walk
TTITLE6=I Love You
TTITLE7=Thelonius
TTITLE8=Kentucky
TTITLE9=Fee-Fi-Fo-Fum
TTITLE10=Inner Urge
EXTD=YEAR: 2014
EXTT0=
EXTT1=
EXTT2=
EXTT3=
EXTT4=
EXTT5=
EXTT6=
EXTT7=
EXTT8=
EXTT9=
EXTT10=
PLAYORDER=
